<?xml version="1.0" standalone="no"?>
<!DOCTYPE svg PUBLIC "-//W3C//DTD SVG 20010904//EN"
 "http://www.w3.org/TR/2001/REC-SVG-20010904/DTD/svg10.dtd">
<svg version="1.0" xmlns="http://www.w3.org/2000/svg"
 width="1000.000000pt" height="1000.000000pt" viewBox="0 0 1000.000000 1000.000000"
 preserveAspectRatio="xMidYMid meet">
<metadata>
Created by potrace 1.11, written by Peter Selinger 2001-2013
</metadata>
<g transform="translate(0.000000,1000.000000) scale(0.100000,-0.100000)"
fill="#000000" stroke="none">
<path d="M4710 9239 c-1125 -79 -2157 -590 -2904 -1439 -862 -979 -1225 -2311
-980 -3595 110 -572 333 -1110 662 -1595 297 -439 706 -845 1144 -1138 1445
-967 3320 -960 4758 16 241 163 432 324 650 548 323 332 557 659 759 1062 599
1196 599 2608 0 3804 -201 400 -435 729 -754 1057 -351 360 -710 623 -1155
846 -662 332 -1439 486 -2180 434z m755 -163 c790 -96 1481 -385 2110 -885
158 -125 495 -463 624 -625 492 -621 779 -1310 878 -2106 25 -205 25 -715 0
-920 -75 -605 -256 -1140 -558 -1645 -179 -299 -352 -520 -623 -791 -271 -271
-492 -444 -791 -623 -505 -302 -1039 -483 -1645 -557 -205 -26 -715 -26 -920
0 -803 99 -1483 383 -2115 885 -154 122 -494 462 -616 616 -501 631 -787 1314
-886 2115 -13 111 -18 218 -18 460 0 242 5 349 18 460 99 796 390 1494 881
2110 127 160 466 498 621 621 683 543 1432 835 2310 903 116 9 606 -4 730 -18z"/>
<path d="M7060 7294 c-168 -25 -1002 -139 -1854 -254 -853 -116 -1552 -213
-1555 -217 -4 -5 -4 -560 -1 -1234 l5 -1225 -60 15 c-91 23 -309 19 -406 -7
-310 -83 -547 -319 -630 -628 -31 -113 -31 -325 0 -438 176 -654 985 -873
1461 -396 129 128 226 317 249 485 7 50 11 472 11 1240 l0 1164 33 6 c17 3
579 77 1247 165 668 88 1227 162 1243 165 l27 5 0 -886 0 -886 -32 6 c-311 64
-607 -20 -819 -233 -281 -281 -335 -721 -131 -1066 62 -105 192 -235 297 -297
344 -203 778 -151 1060 127 183 181 279 433 260 685 -3 47 -7 909 -8 1915 l-2
1830 -45 2 c-25 0 -182 -19 -350 -43z"/>
</g>
</svg>
